# xmcd
#
# Track frame offsets: 
#        150
#        23215
#        52946
#        84746
#        112355
#        128363
#        148845
#        173835
#        192064
#        233999
#
# Disc length: 3489 seconds
#
# Revision: 0
# Processed by: cddbd v1.5.2PL0 Copyright (c) Steve Scherf et al.
# Submitted via: ExactAudioCopy v1.3
#
DISCID=850d9f0a
DTITLE=The 44's - On The 13th
DYEAR=2015
DGENRE=Blues
TTITLE0=Fade To Black
TTITLE1=Too Many Drivers
TTITLE2=Easy Baby
TTITLE3=Johnny's
TTITLE4=Medium Shade
TTITLE5=Slip Slide
TTITLE6=Ninety-Nine To Life
TTITLE7=Jake's Juke
TTITLE8=Devil's Woman
TTITLE9=Hanging Tree
EXTD=
EXTT0=
EXTT1=
EXTT2=
EXTT3=
EXTT4=
EXTT5=
EXTT6=
EXTT7=
EXTT8=
EXTT9=
PLAYORDER=
